<svg id="Capa_2" xmlns="http://www.w3.org/2000/svg" viewBox="0 0 57.13 57.13"><defs><style>.cls-1{fill:#fff;}</style></defs><g id="Capa_3"><path class="cls-1" d="M49.45,0H7.68C3.44,0,0,3.44,0,7.68V49.45c0,4.24,3.44,7.68,7.68,7.68H49.45c4.24,0,7.68-3.44,7.68-7.68V7.68c0-4.24-3.44-7.68-7.68-7.68ZM28.34,44.76c-14.06,2.48-17.16-7.53-17.16-7.53,0,0,4.44,2.75,9.78,1.96,0,0-6.38-1.07-7.02-7.06,0,0,1.78,1.81,3.22,1.39-1.06,.17-8.18-7.98-4.16-19.72h0c-.08-.09-.08-.1,0,0,.68,.8,7.19,8.16,15.21,7.73,0,0-2.82-6.14,4.51-8.62,7.33-2.48,8.9,2.79,8.9,2.79,0,0,1.65,.89,4.53-2.58,0,0,1.01,4.2-1.12,9.15,0,0,1.57,19.27-16.69,22.49Z"/></g></svg>